<mxfile host="app.diagrams.net" modified="2023-09-19T08:43:02.909Z" agent="Mozilla/5.0 (Macintosh; Intel Mac OS X 10_15_7) AppleWebKit/537.36 (KHTML, like Gecko) Chrome/116.0.0.0 Safari/537.36" etag="3YAyE0aVjrof-yW4ZTJw" version="21.7.5" type="github">
  <diagram name="第 1 页" id="F4ggqMPdJtU-3wj4e8-U">
    <mxGraphModel dx="1159" dy="615" grid="1" gridSize="10" guides="1" tooltips="1" connect="1" arrows="1" fold="1" page="1" pageScale="1" pageWidth="827" pageHeight="1169" math="0" shadow="0">
      <root>
        <mxCell id="0" />
        <mxCell id="1" parent="0" />
        <mxCell id="_ns3eHESZFzk__OPhv8L-7" style="edgeStyle=orthogonalEdgeStyle;rounded=0;orthogonalLoop=1;jettySize=auto;html=1;" edge="1" parent="1" source="_ns3eHESZFzk__OPhv8L-5" target="_ns3eHESZFzk__OPhv8L-6">
          <mxGeometry relative="1" as="geometry" />
        </mxCell>
        <mxCell id="_ns3eHESZFzk__OPhv8L-9" value="获取移动的距离" style="edgeLabel;html=1;align=center;verticalAlign=middle;resizable=0;points=[];" vertex="1" connectable="0" parent="_ns3eHESZFzk__OPhv8L-7">
          <mxGeometry x="-0.209" y="-2" relative="1" as="geometry">
            <mxPoint x="7" y="-3" as="offset" />
          </mxGeometry>
        </mxCell>
        <mxCell id="_ns3eHESZFzk__OPhv8L-5" value="&lt;font style=&quot;font-size: 15px;&quot;&gt;触摸事件&lt;/font&gt;" style="rounded=0;whiteSpace=wrap;html=1;fillColor=#f5f5f5;fontColor=#333333;strokeColor=#666666;" vertex="1" parent="1">
          <mxGeometry x="40" y="210" width="120" height="60" as="geometry" />
        </mxCell>
        <mxCell id="_ns3eHESZFzk__OPhv8L-11" style="edgeStyle=orthogonalEdgeStyle;rounded=0;orthogonalLoop=1;jettySize=auto;html=1;entryX=0;entryY=0.5;entryDx=0;entryDy=0;" edge="1" parent="1" source="_ns3eHESZFzk__OPhv8L-6" target="_ns3eHESZFzk__OPhv8L-10">
          <mxGeometry relative="1" as="geometry" />
        </mxCell>
        <mxCell id="_ns3eHESZFzk__OPhv8L-6" value="&lt;font style=&quot;font-size: 15px;&quot;&gt;根据距离计算&lt;br&gt;旋转方向和角度&lt;/font&gt;" style="rounded=0;whiteSpace=wrap;html=1;fillColor=#dae8fc;strokeColor=#6c8ebf;" vertex="1" parent="1">
          <mxGeometry x="320" y="210" width="120" height="60" as="geometry" />
        </mxCell>
        <mxCell id="_ns3eHESZFzk__OPhv8L-10" value="&lt;font style=&quot;font-size: 15px;&quot;&gt;人物在某个方向&lt;br&gt;上旋转某个角度&lt;/font&gt;" style="rounded=0;whiteSpace=wrap;html=1;fillColor=#f8cecc;strokeColor=#b85450;" vertex="1" parent="1">
          <mxGeometry x="560" y="210" width="140" height="60" as="geometry" />
        </mxCell>
      </root>
    </mxGraphModel>
  </diagram>
</mxfile>
